<svg width="32" height="32" viewBox="0 0 32 32" fill="none" xmlns="http://www.w3.org/2000/svg">
<path d="M26.749 10.2868C27.474 8.80266 27.8877 7.19428 27.9663 5.55457C28.0449 3.91487 27.7868 2.27635 27.2069 0.73373C27.1454 0.545774 27.0283 0.379397 26.8701 0.255243C26.7118 0.131088 26.5193 0.0546191 26.3165 0.0353232C26.1138 0.0160272 25.9096 0.0547534 25.7293 0.146697C25.5491 0.238641 25.4007 0.379756 25.3026 0.552534C23.9811 2.83761 21.1404 6.52192 19.0593 6.69304H18.9656C18.0088 6.51104 17.0374 6.40999 16.0624 6.39105C15.084 6.40976 14.1092 6.51081 13.1489 6.69304H13.076C10.9949 6.53198 8.11254 2.84768 6.78062 0.562601C6.68772 0.379765 6.53967 0.228499 6.35602 0.128794C6.17237 0.0290884 5.96177 -0.0143639 5.75205 0.00417911C5.54233 0.0227221 5.34337 0.102388 5.18144 0.232648C5.01952 0.362908 4.90226 0.537632 4.84517 0.73373C4.25518 2.27092 3.98722 3.90631 4.05689 5.54466C4.12656 7.183 4.53247 8.79157 5.25099 10.2767C3.44041 10.4981 1.14077 11.0619 0.308319 12.4812C0.106372 12.8176 0 13.1996 0 13.5885C0 13.9775 0.106372 14.3595 0.308319 14.6958C0.546685 15.1071 0.901469 15.444 1.33096 15.6669C1.76045 15.8898 2.2468 15.9895 2.73283 15.9541C3.595 15.9371 4.44736 15.7735 5.25099 15.471C5.24385 16.0141 5.28914 16.5567 5.38626 17.0916C5.85074 18.8799 6.4596 20.6301 7.20725 22.3262C7.40495 22.7993 7.62347 23.3328 7.73793 23.6549C7.39611 24.4629 7.12801 25.2982 6.9367 26.1514C6.88729 26.7542 6.96512 27.3605 7.16547 27.9333C7.36582 28.5061 7.6845 29.0335 8.10213 29.4834C9.61095 31.1544 12.2644 32 16.0312 32C19.7981 32 22.4619 31.1544 23.9603 29.4834C24.38 29.0348 24.7 28.5076 24.9005 27.9344C25.1009 27.3613 25.1776 26.7544 25.1257 26.1514C24.9379 25.2985 24.6733 24.4632 24.3349 23.6549C24.4494 23.3328 24.6679 22.8094 24.8552 22.3262C25.6107 20.633 26.2198 18.8822 26.6762 17.0916C26.7812 16.5576 26.83 16.0146 26.8218 15.471C27.5992 15.7646 28.4226 15.928 29.2568 15.9541C29.7441 15.989 30.2317 15.8892 30.6628 15.6664C31.0938 15.4437 31.4506 15.1071 31.6917 14.6958C31.8936 14.3595 32 13.9775 32 13.5885C32 13.1996 31.8936 12.8176 31.6917 12.4812C30.8696 11.1122 28.57 10.5082 26.749 10.2868ZM25.7605 3.60266C26.1358 5.70773 25.7693 7.87373 24.7199 9.75323C24.4591 9.44688 24.1812 9.15452 23.8875 8.87746C23.2994 8.35447 22.6284 7.92623 21.9 7.60909C23.4008 6.48278 24.7043 5.12998 25.7605 3.60266V3.60266ZM6.29155 3.60266C7.33719 5.14061 8.63803 6.50107 10.1416 7.62922C9.41452 7.93761 8.74889 8.3669 8.17497 8.89759C7.87702 9.17376 7.59561 9.46616 7.33211 9.77337C6.2796 7.8876 5.91311 5.71424 6.29155 3.60266V3.60266ZM2.19174 13.7295C2.09809 13.5684 2.1293 13.5181 2.19174 13.4778C2.43107 13.0852 3.63812 12.4712 5.94817 12.2396C5.8337 12.5316 5.72965 12.8235 5.636 13.1255C4.28327 13.7999 2.47269 14.2227 2.19174 13.7295ZM24.6263 16.7494C24.1904 18.4019 23.627 20.0204 22.9405 21.5913C22.6688 22.2068 22.4291 22.835 22.2226 23.4738L22.1601 23.7858L22.2746 24.0677C22.6037 24.8353 22.8716 25.6261 23.0758 26.4333C23.0868 26.7508 23.0327 27.0673 22.9166 27.3644C22.8006 27.6616 22.6248 27.9336 22.3995 28.1647C21.6503 29.0002 19.9437 29.9867 16.0416 29.9867C12.1395 29.9867 10.433 28.9801 9.68379 28.1647C9.23452 27.6944 8.99197 27.0735 9.00742 26.4333C9.21588 25.6261 9.4872 24.8353 9.81906 24.0677L9.93352 23.7858L9.86068 23.4738C9.66532 22.8294 9.42901 22.1974 9.1531 21.5813C8.4547 20.0024 7.88414 18.3735 7.44658 16.7091C7.24813 15.5489 7.34533 14.3593 7.72975 13.2436C8.11417 12.128 8.7742 11.1199 9.65257 10.3069C11.2238 8.77679 14.7825 8.43453 16.0208 8.42447C17.2591 8.4144 20.745 8.76673 22.4099 10.327C23.2936 11.1323 23.9582 12.1361 24.3449 13.2494C24.7315 14.3626 24.8281 15.551 24.6263 16.7091V16.7494ZM29.8291 13.7295C29.5585 14.2127 27.7479 13.7999 26.4576 13.1355C26.3744 12.8336 26.2703 12.5416 26.1559 12.2396C28.4451 12.4712 29.6418 13.0852 29.8707 13.4778C29.9227 13.5181 29.9435 13.5684 29.8499 13.7295H29.8291Z" fill="#2D3440"/>
</svg>
